PathFileType	4	(X/Y/Z)	c:\Git\powerlifing_model_clean\simulations\HC835B\Session1\HC835B_OGR_0003\marker_experimental.trc
DataRate	CameraRate	NumFrames	NumMarkers	Units	OrigDataRate	OrigDataStartFrame	OrigNumFrames
240.000000	240.000000	4	38	mm	240.000000	107	215
Frame#	Time	RPSI			LPSI			RASI			LASI			RTH1			RTH2			RTH3			RTH4			RSK1			RSK2			RSK3			RSK4			RCAL1			RCAL2			RCAL3			RST			RPT			RTN			RFMB			RSMB			RVMB			RFMH			RSMH			RVMH			RPM			LTH1			LTH2			LTH3			LTH4			LSK1			LSK2			LSK3			LSK4			LCAL1			LCAL2			LCAL3			LFMH			LVMH			
		X1	Y1	Z1	X2	Y2	Z2	X3	Y3	Z3	X4	Y4	Z4	X5	Y5	Z5	X6	Y6	Z6	X7	Y7	Z7	X8	Y8	Z8	X9	Y9	Z9	X10	Y10	Z10	X11	Y11	Z11	X12	Y12	Z12	X13	Y13	Z13	X14	Y14	Z14	X15	Y15	Z15	X16	Y16	Z16	X17	Y17	Z17	X18	Y18	Z18	X19	Y19	Z19	X20	Y20	Z20	X21	Y21	Z21	X22	Y22	Z22	X23	Y23	Z23	X24	Y24	Z24	X25	Y25	Z25	X26	Y26	Z26	X27	Y27	Z27	X28	Y28	Z28	X29	Y29	Z29	X30	Y30	Z30	X31	Y31	Z31	X32	Y32	Z32	X33	Y33	Z33	X34	Y34	Z34	X35	Y35	Z35	X36	Y36	Z36	X37	Y37	Z37	X38	Y38	Z38	

108	0.4458333333333333	497.8441467285157	1173.893920898438	-1216.468383789063	387.4132690429689	1166.863647460938	-1199.891723632813	538.8209228515626	1080.424682617188	-1403.455078125	310.9602050781251	1095.927124023438	-1388.873901367188	604.3015747070314	799.6113891601565	-1268.58251953125	582.9933471679689	774.2808837890627	-1319.622924804688	588.2584838867189	716.5106811523439	-1266.9931640625	557.7233276367189	693.3501586914064	-1311.54248046875	578.8182983398439	552.9099121093751	-908.5413208007815	582.9274291992189	491.237030029297	-911.2832641601565	581.5493164062501	522.1313476562501	-858.7226562500002	573.3021850585939	462.7994384765626	-860.6932373046877	535.2591552734376	543.8529663085939	-725.4088745117189	496.4967041015626	540.1046752929689	-695.0282592773439	559.7582397460939	545.9038085937501	-683.4419555664064	488.541473388672	468.4178466796876	-704.1379394531251	586.5307617187501	486.727752685547	-682.3588867187501	507.8453369140626	413.3656005859376	-713.5881347656251	506.9194335937501	385.4070434570314	-691.4093017578126	561.3131103515626	373.5932006835938	-705.4785766601564	592.9227294921876	446.427703857422	-649.5581054687501	500.7877197265626	334.5221862792969	-653.7443237304689	556.1338500976564	321.8512878417969	-658.7099609375001	609.0055541992189	370.6233215332032	-626.3237915039064	545.5740356445314	265.9393615722657	-646.4479980468751	236.3866424560547	816.2535400390627	-1363.436401367188	244.2269744873047	824.8364868164065	-1423.021240234375	247.5093688964844	744.6703491210939	-1409.578369140625	272.2825012207032	754.1467895507814	-1465.476440429688	302.5170288085938	297.8002929687501	-1443.73095703125	290.3121337890626	288.3968505859376	-1494.67578125	303.5308227539063	247.3895874023438	-1469.416381835938	307.6994018554688	242.3423309326172	-1525.946411132813	369.0863952636719	90.09742736816408	-1449.117797851563	350.3493041992188	47.01802062988282	-1459.213745117188	406.3939819335939	63.55660629272462	-1461.90087890625	406.3597412109376	124.0762786865235	-1675.75244140625	311.1595153808594	53.8090171813965	-1648.147216796875	
109	0.45	498.4763488769532	1169.065673828125	-1229.705444335938	388.0142517089845	1161.902587890625	-1213.302734375	538.8257446289064	1076.72607421875	-1417.282958984375	310.6524047851563	1092.313598632813	-1403.117553710938	604.5630493164064	794.6258544921877	-1284.55078125	583.4705200195314	769.815612792969	-1335.991455078125	588.5550537109376	711.4764404296876	-1284.085327148438	558.1384887695314	688.9323730468751	-1329.047729492188	579.4688110351564	553.8283691406251	-928.679138183594	583.4680175781251	492.003875732422	-930.0122680664065	582.3987426757814	524.2634887695314	-878.1423339843752	574.0103149414064	464.865203857422	-878.7578125000002	536.0452270507814	549.2806396484376	-746.3904418945314	497.1977539062501	546.1878662109376	-715.7635498046876	560.4843139648439	552.8828735351564	-704.4913330078126	489.5014038085939	474.3807373046876	-722.5233154296876	587.4344482421876	493.7310791015626	-701.3566284179689	509.1084899902345	418.9799194335939	-730.1210937500001	508.7115173339845	391.3370361328126	-707.4701538085939	563.1596069335939	379.9398803710938	-720.7329101562501	593.9741210937501	454.6404418945314	-667.2418212890626	502.2779235839845	342.1919250488282	-667.4559936523439	557.6443481445314	329.6658935546876	-672.0119018554689	610.1984252929689	379.7195739746094	-641.2299804687501	548.2332763671876	274.4726257324219	-658.2911376953126	237.5747375488282	813.3938598632815	-1378.495361328125	243.953598022461	822.2881469726565	-1438.160400390625	247.729476928711	742.0366821289064	-1425.108032226563	271.1615600585938	752.0299682617189	-1481.157836914063	303.4553833007813	294.3047485351563	-1454.5478515625	290.7463684082032	284.1959228515626	-1505.023803710938	304.2215881347657	243.7880554199219	-1479.066162109375	308.2804260253907	237.646713256836	-1535.456787109375	369.7436218261719	87.1652069091797	-1456.419067382813	351.2913818359376	43.79479217529298	-1465.896484375	407.268280029297	60.63959121704103	-1468.56201171875	407.9607849121095	117.3695220947266	-1683.411743164063	312.9474487304688	47.11881256103516	-1654.982299804688	
110	0.4541666666666667	499.2548828125001	1164.018432617188	-1242.943115234375	388.7686157226564	1156.762573242188	-1226.768798828125	538.8866577148439	1072.834716796875	-1431.103759765625	310.2316894531251	1088.73046875	-1417.080932617188	604.9408569335939	789.558044433594	-1300.549926757813	584.1961669921876	765.5117187500001	-1352.3876953125	588.9165039062501	706.4104003906251	-1301.237182617188	558.8909912109376	684.3478393554689	-1346.581420898438	580.1287231445314	554.5144042968751	-949.0615844726565	584.0971679687501	492.6904602050782	-949.0701293945315	583.1487426757814	526.0540161132814	-897.9165649414065	574.5418090820314	466.5881347656251	-897.2193603515627	536.5758056640626	554.2036743164064	-767.7351684570314	497.7095642089845	551.8982543945314	-736.9906616210939	561.0704345703126	559.4125976562501	-725.9149780273439	490.3555908203126	479.884002685547	-741.2908325195314	588.1550903320314	500.388641357422	-720.8311157226564	510.3097229003907	424.2287597656251	-747.2318115234376	509.9407958984376	397.5849609375001	-723.4564208984376	564.5532226562501	385.8628845214845	-736.4445190429689	594.9116821289064	462.4815673828126	-685.5013427734376	503.5637512207032	349.6759948730469	-681.9707641601564	559.2474365234376	337.2606811523438	-686.0746459960939	611.2427368164064	388.570281982422	-656.8396606445314	550.0695190429689	282.4247741699219	-670.4146728515626	238.5565643310547	810.347839355469	-1393.575561523438	243.540756225586	819.5125122070315	-1453.31982421875	247.8043823242188	739.1275634765626	-1440.623657226563	269.7481079101563	749.3701782226564	-1497.372680664063	303.5659179687501	290.9963989257813	-1464.993774414063	290.9933471679688	280.0772094726563	-1515.306274414063	304.5315551757813	240.0442047119141	-1488.660400390625	308.6541137695313	232.9971160888672	-1544.949462890625	370.9678649902344	86.51602935791017	-1463.34033203125	352.1139526367188	43.11637496948243	-1471.0703125	408.169403076172	59.19422912597658	-1474.48486328125	409.7312927246095	110.2823791503907	-1690.480102539063	314.9546508789063	40.31140899658204	-1660.871215820313	
111	0.4583333333333333	500.0434570312501	1158.70849609375	-1256.128662109375	389.5149536132814	1151.438110351563	-1240.345336914063	539.0242919921876	1068.791870117188	-1444.904296875	309.8386535644532	1084.273193359375	-1430.017944335938	605.3807983398439	784.4790649414065	-1316.682861328125	584.9767456054689	761.1658935546876	-1368.9423828125	589.5142822265626	701.3757934570314	-1318.517456054688	559.4980468750001	679.9929809570314	-1364.255859375	581.0486450195314	555.1376953125001	-969.9465332031252	584.7627563476564	493.1822204589845	-968.4171142578127	583.8623046875001	527.7241821289064	-917.9876708984377	575.2417602539064	468.238494873047	-915.9931640625002	536.9638671875001	558.7636718750001	-789.257263183594	498.0715332031251	557.1370849609376	-758.5498046875001	561.3389892578126	565.3775024414064	-747.5859985351564	491.2515563964845	484.909881591797	-760.7098388671876	588.7818603515626	506.7269592285157	-740.6567382812501	511.4017639160157	429.2552490234376	-764.8301391601564	511.2039489746095	403.2946777343751	-740.2246704101564	565.7687988281251	391.549285888672	-752.7552490234376	595.7000122070314	469.9283447265626	-704.1954956054689	505.0283813476564	356.7580261230469	-697.2814331054689	561.0386962890626	344.1838073730469	-701.0941162109376	612.5103759765626	397.0386657714845	-673.2721557617189	552.0736694335939	290.1621398925782	-683.5582885742189	239.3735809326172	806.4562988281252	-1408.882202148438	242.806381225586	816.5717773437502	-1468.334716796875	247.7866973876954	735.8197021484376	-1456.349609375	268.0584716796876	746.3792114257814	-1513.463256835938	303.2815551757813	287.6393737792969	-1475.367431640625	291.1050109863282	275.6347351074219	-1525.727783203125	304.4797973632813	236.0966339111329	-1498.341430664063	308.9589538574219	228.2241210937501	-1554.49560546875	372.1408996582032	87.57651519775392	-1469.682861328125	352.6686706542969	43.96388626098634	-1474.817016601563	409.0000305175782	59.15001678466798	-1478.903442382813	411.9324035644532	102.4995803833008	-1696.551391601563	317.0127258300782	33.39262008666993	-1664.542236328125	
